<?xml version="1.0" encoding="utf-8"?>
<!-- Generator: Adobe Illustrator 16.0.0, SVG Export Plug-In . SVG Version: 6.00 Build 0)  -->
<!DOCTYPE svg PUBLIC "-//W3C//DTD SVG 1.1//EN" "http://www.w3.org/Graphics/SVG/1.1/DTD/svg11.dtd">
<svg version="1.1" id="Layer_4" xmlns="http://www.w3.org/2000/svg" xmlns:xlink="http://www.w3.org/1999/xlink" x="0px" y="0px"
	 width="506px" height="318.39px" viewBox="0 0 506 318.39" enable-background="new 0 0 506 318.39" xml:space="preserve">
<g>
	<g>
		<path fill="#8BC53F" d="M89.56,286.42c0,2.436-0.409,4.245-1.229,5.421c-0.823,1.169-2.178,1.939-4.067,2.305
			c-1.104,0.178-2.729,0.27-4.866,0.27h-11.45v10.9H57.837v-33.523h21.561c1.854,0,3.369,0.091,4.546,0.27
			c2.032,0.363,3.479,1.105,4.334,2.233c0.854,1.134,1.281,2.96,1.281,5.493V286.42z M79.504,282.02c0-0.992-0.303-1.558-0.91-1.69
			H67.948v5.546h8.614c1.568,0,2.45-0.131,2.647-0.406C79.405,285.201,79.504,284.05,79.504,282.02z"/>
		<path fill="#8BC53F" d="M147.281,305.315h-10.057v-8.602c0-1.535-0.979-2.298-2.942-2.298h-8.612v10.9h-10.109v-33.523h21.559
			c2.209,0,3.94,0.132,5.189,0.406c1.819,0.406,3.103,1.201,3.85,2.372c0.75,1.175,1.123,2.913,1.123,5.218v6.632
			c0,1.623-0.676,2.89-2.034,3.798c1.358,0.674,2.034,1.892,2.034,3.654V305.315z M137.224,282.02c0-0.992-0.302-1.558-0.911-1.69
			h-10.644v5.546h8.612c1.568,0,2.45-0.131,2.647-0.406C137.125,285.201,137.224,284.05,137.224,282.02z"/>
		<path fill="#8BC53F" d="M184.457,305.315h-10.104v-33.523h10.104V305.315z"/>
		<path fill="#8BC53F" d="M244.428,305.315h-10.756l-10.428-14.764v14.764h-10.111v-33.523h9.525l11.606,17.412v-17.345
			l10.165-0.066V305.315z"/>
		<path fill="#8BC53F" d="M299.801,280.258h-10.006v25.058h-10.117v-25.058h-9.195v-8.602h29.318V280.258z"/>
		<path fill="#8BC53F" d="M335.422,305.315h-10.108v-33.523h10.108V305.315z"/>
		<path fill="#8BC53F" d="M395.394,305.315h-10.755l-10.433-14.764v14.764h-10.116v-33.523h9.529l11.611,17.412v-17.345
			l10.165-0.066V305.315z"/>
		<path fill="#8BC53F" d="M452.574,305.315h-21.556c-2.108,0-3.763-0.113-4.976-0.335c-1.893-0.364-3.228-1.133-4.011-2.31
			c-0.786-1.17-1.176-2.949-1.176-5.344v-17.54c0-2.353,0.39-4.109,1.176-5.285c0.784-1.176,2.118-1.968,4.011-2.369
			c1.137-0.229,2.8-0.342,4.976-0.342h21.556v8.538h-18.667c-1.039,0-1.713,0.09-2.035,0.27c-0.643,0.315-0.958,0.989-0.958,2.029
			v11.917c0,0.997,0.315,1.653,0.958,1.968c0.358,0.18,1.04,0.269,2.035,0.269h8.556v-3.994h-8.556v-8.536h18.667V305.315z"/>
	</g>
	<g>
		<path fill="none" d="M239.325,225.29c-2.73,0.041-5.459,0.085-8.174,0.132l1.276,14.538L239.325,225.29z"/>
		<path fill="none" d="M180.672,234.578l-1.63-7.964c-1.661,0.046-3.319,0.094-4.97,0.144l-3.583,7.82H180.672z"/>
		<path fill="none" d="M384.597,234.578l-1.747-8.507c-1.491-0.048-2.987-0.093-4.484-0.136l-3.962,8.643H384.597z"/>
		<path fill="none" d="M35.391,241.828c1.388,0,2.312-0.103,2.772-0.316c0.933-0.537,1.625-1.832,2.079-3.872
			c0.068-0.112,0.135-0.375,0.196-0.807l0.659-4.585c-6.204,0.328-11.956,0.643-17.222,0.94l-1.242,8.64H35.391z"/>
		<path fill="#8BC53F" d="M273.004,171.169l19.036-28.906h63.43c11.646,0,21.093-9.442,21.093-21.094V81.771
			c-27.037-5.765-58.481-7.571-89.661-7.196l-8.309,12.619h48.35c4.59,0,8.313,4.064,8.313,9.081c0,5.016-3.724,9.081-8.313,9.081
			H266.63l-16.325,24.801h-0.215l-26.951,41.013h0.16H273.004z"/>
		<path fill="#006838" d="M153.937,121.169c0,11.651,9.442,21.094,21.092,21.094h52.573l24.304-36.908h-48.349
			c-4.594,0-8.316-4.064-8.316-9.081c0-5.017,3.722-9.081,8.316-9.081h60.308l8.084-12.278
			c-47.348,1.569-92.268,7.547-118.011,11.563V121.169z"/>
		<path fill="#006838" d="M40.438,236.833c-0.061,0.431-0.127,0.695-0.196,0.807c-0.454,2.04-1.146,3.335-2.079,3.872
			c-0.46,0.213-1.384,0.316-2.772,0.316H22.633l1.242-8.64c-4.559,0.256-8.747,0.496-12.536,0.721l-2.945,20.494h30.004
			c7.005,0,11.444-3.542,13.315-10.637c0.233-0.857,0.386-1.563,0.465-2.096l1.446-10.073c-4.35,0.224-8.535,0.44-12.529,0.651
			L40.438,236.833z"/>
		<path fill="#006838" d="M74.473,233.129c-0.406,1.407-0.3,2.627,0.316,3.679l9.973,17.596h14.68l-10.808-18.778l1.903,0.13
			c0.536,0,1.265-0.042,2.188-0.13c2.344-0.263,4.457-1.002,6.332-2.234c1.663-1.091,2.864-2.469,3.699-4.078
			c-9.473,0.4-18.532,0.807-27.126,1.21C75.142,231.272,74.755,232.14,74.473,233.129z"/>
		<path fill="#006838" d="M57.887,254.403h12.437l4.199-23.826c-4.302,0.202-8.487,0.403-12.539,0.604L57.887,254.403z"/>
		<path fill="#006838" d="M107.517,244.555c-1.16,6.568,2.862,9.848,12.061,9.848h23.906l1.804-10.241h-22.057
			c-2.107-0.173-2.994-1.223-2.653-3.151l0.924-5.255h25.269l1.446-8.179c-13.164,0.45-25.861,0.93-37.958,1.425L107.517,244.555z"
			/>
		<path fill="#006838" d="M180.672,234.578h-10.183l3.583-7.82c-4.172,0.12-8.305,0.248-12.401,0.377l-15.302,27.269h12.997
			l5.739-10.241h17.567l2.125,10.241h12.998l-5.865-28.137c-4.327,0.111-8.625,0.226-12.887,0.348L180.672,234.578z"/>
		<path fill="#006838" d="M232.427,239.959l-1.276-14.538c-3.804,0.063-7.595,0.135-11.369,0.21l3.187,23.39
			c0.581,4.292,2.93,6.438,7.049,6.438c3.261,0,5.796-1.182,7.604-3.554c0.671-0.782,1.271-1.744,1.794-2.884l11.75-23.897
			c-3.958,0.048-7.904,0.104-11.841,0.165L232.427,239.959z"/>
		<path fill="#006838" d="M247.451,254.403h11.791l5.188-29.423c-3.944,0.037-7.881,0.077-11.81,0.125L247.451,254.403z"/>
		<path fill="#006838" d="M201.244,254.403h11.872l5.066-28.739c-3.991,0.081-7.964,0.165-11.916,0.254L201.244,254.403z"/>
		<path fill="#006838" d="M271.156,226.434c-0.328,1.841,0.016,3.548,1.023,5.122c1.801,2.804,4.795,4.2,8.96,4.2h10.356
			c1.728,0.18,2.479,0.919,2.253,2.234l-0.606,3.417c-0.226,1.312-1.352,2.229-3.378,2.755h-21.66l-1.803,10.241h24.55
			c2.993,0,5.664-0.57,8.003-1.703c3.462-1.75,5.534-4.507,6.194-8.275l1.686-9.587c0.618-3.503-0.458-6.037-3.229-7.61
			c-1.823-1.137-4.081-1.707-6.757-1.707h-8.986c-0.375,0-0.637,0-0.801,0c-0.904-0.089-1.583-0.315-2.042-0.672
			c-4.503,0.018-9.001,0.043-13.495,0.076L271.156,226.434z"/>
		<path fill="#006838" d="M312.114,243.899c-0.863,4.902,1.026,8.14,5.669,9.721c1.407,0.525,2.803,0.783,4.189,0.783h26.07
			l1.813-10.241h-20.618h-1.046c-1.281,0-2.108-0.173-2.478-0.526c-0.643-0.609-0.799-1.79-0.495-3.544l2.673-15.123
			c-4.133-0.041-8.274-0.071-12.42-0.093L312.114,243.899z"/>
		<path fill="#006838" d="M384.597,234.578h-10.192l3.962-8.643c-3.955-0.117-7.928-0.225-11.918-0.322l-16.16,28.79h13
			l5.734-10.241h17.57l2.126,10.241h12.995l-5.809-27.879c-4.323-0.162-8.676-0.314-13.055-0.453L384.597,234.578z"/>
		<path fill="#006838" d="M405.167,254.403h12.429l3.016-17.071h17.406c3.311,0,6.122-0.744,8.415-2.229
			c2.182-1.465,3.583-3.344,4.295-5.604c-13.102-0.96-26.736-1.748-40.753-2.386L405.167,254.403z"/>
		<path fill="#006838" d="M453.992,244.555c-1.159,6.568,2.862,9.848,12.063,9.848h23.903l1.807-10.241h-22.064
			c-2.112-0.173-2.991-1.223-2.654-3.151l0.93-5.255h25.261l0.396-2.243c-11.709-1.378-24.109-2.563-37.067-3.573L453.992,244.555z"
			/>
		<path fill="#8BC53F" d="M376.563,81.771V71.373c0-11.644-9.448-21.087-21.093-21.087h-52.569l-15.999,24.289
			C318.082,74.2,349.526,76.006,376.563,81.771z"/>
		<path opacity="0.3" fill="#FFFFFF" d="M376.563,81.771V71.373c0-11.644-9.448-21.087-21.093-21.087h-52.569l-15.999,24.289
			C318.082,74.2,349.526,76.006,376.563,81.771z"/>
		<path fill="#006838" d="M288.098,50.285l21.601-32.809h-49.92l-21.558,32.809h-63.193c-11.65,0-21.092,9.443-21.092,21.087v15.105
			c25.744-4.015,70.664-9.993,118.011-11.563l16.218-24.63H288.098z"/>
		<path opacity="0.3" fill="#FFFFFF" d="M288.098,50.285l21.601-32.809h-49.92l-21.558,32.809h-63.193
			c-11.65,0-21.092,9.443-21.092,21.087v15.105c25.744-4.015,70.664-9.993,118.011-11.563l16.218-24.63H288.098z"/>
		<path fill="#006838" d="M46.249,196.367h-29.52l-5.391,37.542c3.789-0.225,7.977-0.464,12.536-0.721l3.505-24.408h12.677
			c2.566,0,3.905,0.914,4.017,2.743l-2.977,20.725c3.994-0.211,8.179-0.428,12.529-0.651l3.229-22.494
			C58.073,200.612,54.539,196.367,46.249,196.367z"/>
		<path opacity="0.3" fill="#FFFFFF" d="M46.249,196.367h-29.52l-5.391,37.542c3.789-0.225,7.977-0.464,12.536-0.721l3.505-24.408
			h12.677c2.566,0,3.905,0.914,4.017,2.743l-2.977,20.725c3.994-0.211,8.179-0.428,12.529-0.651l3.229-22.494
			C58.073,200.612,54.539,196.367,46.249,196.367z"/>
		<path fill="#006838" d="M105.526,216.721c1.126-6.388-2.292-9.59-10.265-9.59H66.224l-4.24,24.05
			c4.052-0.2,8.237-0.402,12.539-0.604l2.35-13.335H89.23c0.373,0,0.632,0.051,0.779,0.132c1.986,0.267,2.84,1.187,2.561,2.761
			l-0.765,4.333c-0.309,1.752-1.558,2.63-3.75,2.63h-5.057c-3.423,0-5.878,1.146-7.369,3.426c8.595-0.403,17.654-0.81,27.126-1.21
			c0.5-0.964,0.902-1.99,1.105-3.142L105.526,216.721z"/>
		<path opacity="0.3" fill="#FFFFFF" d="M105.526,216.721c1.126-6.388-2.292-9.59-10.265-9.59H66.224l-4.24,24.05
			c4.052-0.2,8.237-0.402,12.539-0.604l2.35-13.335H89.23c0.373,0,0.632,0.051,0.779,0.132c1.986,0.267,2.84,1.187,2.561,2.761
			l-0.765,4.333c-0.309,1.752-1.558,2.63-3.75,2.63h-5.057c-3.423,0-5.878,1.146-7.369,3.426c8.595-0.403,17.654-0.81,27.126-1.21
			c0.5-0.964,0.902-1.99,1.105-3.142L105.526,216.721z"/>
		<path fill="#006838" d="M123.308,225.521l0.928-5.254c0.247-1.398,1.101-2.322,2.572-2.76c0.387-0.082,0.671-0.173,0.847-0.264
			h22.381l1.781-10.111H126.15c-6.793,0-11.202,2.717-13.229,8.145c-0.297,0.788-0.503,1.49-0.611,2.098l-2.051,11.628
			c12.097-0.495,24.794-0.975,37.958-1.425l0.363-2.057H123.308z"/>
		<path opacity="0.3" fill="#FFFFFF" d="M123.308,225.521l0.928-5.254c0.247-1.398,1.101-2.322,2.572-2.76
			c0.387-0.082,0.671-0.173,0.847-0.264h22.381l1.781-10.111H126.15c-6.793,0-11.202,2.717-13.229,8.145
			c-0.297,0.788-0.503,1.49-0.611,2.098l-2.051,11.628c12.097-0.495,24.794-0.975,37.958-1.425l0.363-2.057H123.308z"/>
		<path fill="#006838" d="M180.554,206.61c-4.922,0-8.557,2.097-10.901,6.301l-7.981,14.223c4.097-0.129,8.229-0.257,12.401-0.377
			l3.455-7.541l1.515,7.397c4.262-0.122,8.56-0.237,12.887-0.348l-2.782-13.354C188.285,208.708,185.416,206.61,180.554,206.61z"/>
		<path opacity="0.3" fill="#FFFFFF" d="M180.554,206.61c-4.922,0-8.557,2.097-10.901,6.301l-7.981,14.223
			c4.097-0.129,8.229-0.257,12.401-0.377l3.455-7.541l1.515,7.397c4.262-0.122,8.56-0.237,12.887-0.348l-2.782-13.354
			C188.285,208.708,185.416,206.61,180.554,206.61z"/>
		<path fill="#006838" d="M264.289,208.97c-1.69-1.662-4.136-2.498-7.344-2.498c-1.126,0-2.26,0.093-3.417,0.266
			c-3.975,0.701-6.728,2.675-8.26,5.911l-5.943,12.641c3.937-0.061,7.884-0.117,11.841-0.165l2.261-4.596l-0.807,4.577
			c3.929-0.048,7.865-0.088,11.81-0.125l1.69-9.572C266.586,212.78,265.973,210.636,264.289,208.97z"/>
		<path opacity="0.3" fill="#FFFFFF" d="M264.289,208.97c-1.69-1.662-4.136-2.498-7.344-2.498c-1.126,0-2.26,0.093-3.417,0.266
			c-3.975,0.701-6.728,2.675-8.26,5.911l-5.943,12.641c3.937-0.061,7.884-0.117,11.841-0.165l2.261-4.596l-0.807,4.577
			c3.929-0.048,7.865-0.088,11.81-0.125l1.69-9.572C266.586,212.78,265.973,210.636,264.289,208.97z"/>
		<path fill="#006838" d="M230.026,212.649c-0.287-3.236-2.373-5.21-6.261-5.911c-1.091-0.172-2.174-0.266-3.242-0.266
			c-3.261,0-6.03,0.836-8.3,2.498c-2.273,1.666-3.64,3.81-4.104,6.438l-1.854,10.51c3.952-0.089,7.925-0.173,11.916-0.254
			l0.906-5.135l0.695,5.103c3.773-0.075,7.565-0.146,11.369-0.21L230.026,212.649z"/>
		<path opacity="0.3" fill="#FFFFFF" d="M230.026,212.649c-0.287-3.236-2.373-5.21-6.261-5.911
			c-1.091-0.172-2.174-0.266-3.242-0.266c-3.261,0-6.03,0.836-8.3,2.498c-2.273,1.666-3.64,3.81-4.104,6.438l-1.854,10.51
			c3.952-0.089,7.925-0.173,11.916-0.254l0.906-5.135l0.695,5.103c3.773-0.075,7.565-0.146,11.369-0.21L230.026,212.649z"/>
		<path fill="#006838" d="M284.239,222.76l0.548-3.149c0.252-1.399,1.291-2.148,3.13-2.237l21.919-0.132l1.783-10.111h-25.272
			c-6.2,0-10.432,2.325-12.691,6.963c-0.355,0.788-0.606,1.573-0.741,2.365l-1.493,8.466c4.494-0.032,8.992-0.058,13.495-0.076
			c-0.451-0.35-0.694-0.824-0.718-1.43C284.161,223.33,284.171,223.109,284.239,222.76z"/>
		<path opacity="0.3" fill="#FFFFFF" d="M284.239,222.76l0.548-3.149c0.252-1.399,1.291-2.148,3.13-2.237l21.919-0.132l1.783-10.111
			h-25.272c-6.2,0-10.432,2.325-12.691,6.963c-0.355,0.788-0.606,1.573-0.741,2.365l-1.493,8.466
			c4.494-0.032,8.992-0.058,13.495-0.076c-0.451-0.35-0.694-0.824-0.718-1.43C284.161,223.33,284.171,223.109,284.239,222.76z"/>
		<path fill="#006838" d="M332.134,217.242h22.468l1.782-10.111h-24.23c-5.13,0-8.81,0.765-11.036,2.301
			c-2.224,1.533-3.689,4.357-4.414,8.472l-1.23,6.973c4.146,0.021,8.287,0.052,12.42,0.093l0.992-5.621
			C329.415,218.119,330.503,217.424,332.134,217.242z"/>
		<path opacity="0.3" fill="#FFFFFF" d="M332.134,217.242h22.468l1.782-10.111h-24.23c-5.13,0-8.81,0.765-11.036,2.301
			c-2.224,1.533-3.689,4.357-4.414,8.472l-1.23,6.973c4.146,0.021,8.287,0.052,12.42,0.093l0.992-5.621
			C329.415,218.119,330.503,217.424,332.134,217.242z"/>
		<path fill="#006838" d="M384.47,206.61c-4.925,0-8.553,2.097-10.893,6.301l-7.13,12.702c3.991,0.097,7.964,0.205,11.918,0.322
			l3.077-6.718l1.407,6.854c4.379,0.138,8.732,0.291,13.055,0.453l-2.837-13.612C392.204,208.708,389.337,206.61,384.47,206.61z"/>
		<path opacity="0.3" fill="#FFFFFF" d="M384.47,206.61c-4.925,0-8.553,2.097-10.893,6.301l-7.13,12.702
			c3.991,0.097,7.964,0.205,11.918,0.322l3.077-6.718l1.407,6.854c4.379,0.138,8.732,0.291,13.055,0.453l-2.837-13.612
			C392.204,208.708,389.337,206.61,384.47,206.61z"/>
		<path fill="#006838" d="M453.171,216.458c0.477-2.714-0.248-4.944-2.189-6.699c-1.939-1.75-4.803-2.628-8.597-2.628h-28.89
			l-3.521,19.982c14.017,0.638,27.651,1.426,40.753,2.386c0.141-0.444,0.297-0.881,0.38-1.356L453.171,216.458z M439.346,224.336
			c-0.309,1.754-1.908,2.629-4.796,2.629h-12.107l1.706-9.724h13.243c1.877,0.264,2.8,1.097,2.766,2.501L439.346,224.336z"/>
		<path opacity="0.3" fill="#FFFFFF" d="M453.171,216.458c0.477-2.714-0.248-4.944-2.189-6.699c-1.939-1.75-4.803-2.628-8.597-2.628
			h-28.89l-3.521,19.982c14.017,0.638,27.651,1.426,40.753,2.386c0.141-0.444,0.297-0.881,0.38-1.356L453.171,216.458z
			 M439.346,224.336c-0.309,1.754-1.908,2.629-4.796,2.629h-12.107l1.706-9.724h13.243c1.877,0.264,2.8,1.097,2.766,2.501
			L439.346,224.336z"/>
		<path fill="#006838" d="M469.787,225.521l0.921-5.254c0.248-1.398,1.107-2.322,2.575-2.76c0.387-0.082,0.673-0.173,0.846-0.264
			h22.381l1.787-10.111h-25.67c-6.791,0-11.202,2.717-13.232,8.145c-0.296,0.788-0.502,1.49-0.612,2.098l-2.215,12.567
			c12.958,1.01,25.358,2.195,37.067,3.573l1.413-7.993H469.787z"/>
		<path opacity="0.3" fill="#FFFFFF" d="M469.787,225.521l0.921-5.254c0.248-1.398,1.107-2.322,2.575-2.76
			c0.387-0.082,0.673-0.173,0.846-0.264h22.381l1.787-10.111h-25.67c-6.791,0-11.202,2.717-13.232,8.145
			c-0.296,0.788-0.502,1.49-0.612,2.098l-2.215,12.567c12.958,1.01,25.358,2.195,37.067,3.573l1.413-7.993H469.787z"/>
	</g>
	<text transform="matrix(1 0 0 1 462.2725 280.292)" fill="#006838" font-family="'MyriadPro-Regular'" font-size="12.3229">TM</text>
</g>
</svg>
